<?xml version="1.0" standalone="no"?>
<!DOCTYPE svg PUBLIC "-//W3C//DTD SVG 20010904//EN"
 "http://www.w3.org/TR/2001/REC-SVG-20010904/DTD/svg10.dtd">
<svg version="1.0" xmlns="http://www.w3.org/2000/svg"
 width="256.000000pt" height="256.000000pt" viewBox="0 0 256.000000 256.000000"
 preserveAspectRatio="xMidYMid meet">
<metadata>
Created by potrace 1.11, written by Peter Selinger 2001-2013
</metadata>
<g transform="translate(0.000000,256.000000) scale(0.100000,-0.100000)"
fill="#000000" stroke="none">
<path d="M1250 2364 c-23 -7 -56 -20 -75 -29 -36 -17 -135 -109 -135 -125 0
-17 -20 -11 -43 13 -64 67 -161 108 -258 108 -332 0 -481 -434 -233 -675 l38
-37 -50 -52 c-97 -100 -150 -184 -187 -296 -14 -40 -29 -77 -33 -81 -5 -5 -61
-25 -124 -45 -117 -37 -150 -55 -150 -85 0 -36 30 -54 155 -94 l128 -41 13
-54 c17 -64 82 -190 126 -246 86 -107 238 -229 358 -289 120 -60 277 -109 427
-132 100 -16 318 -21 408 -10 420 51 762 274 886 576 97 237 64 509 -89 725
-42 61 -156 173 -214 212 -32 22 -43 35 -42 54 2 47 16 113 35 166 19 50 22
53 56 53 146 0 166 221 22 244 -100 16 -180 -86 -135 -173 12 -23 14 -36 7
-50 -16 -29 -38 -101 -51 -163 l-11 -57 -62 28 c-34 15 -86 36 -115 45 -44 15
-52 21 -47 37 3 10 8 29 11 42 3 12 13 41 21 65 14 36 20 42 45 42 98 0 161
106 112 190 -68 113 -248 50 -227 -81 2 -19 9 -39 15 -46 8 -10 -21 -115 -58
-211 -1 -1 -25 2 -55 8 -107 21 -99 17 -89 48 35 107 -3 254 -90 339 -74 72
-196 105 -290 77z"/>
</g>
</svg>
